<svg width="9" height="10" viewBox="0 0 9 10" fill="none" xmlns="http://www.w3.org/2000/svg">
<path d="M0.35002 9.79999C0.247353 9.79999 0.163353 9.76732 0.0980196 9.70199C0.0326862 9.63665 1.95354e-05 9.55265 1.95354e-05 9.44999V0.349988C1.95354e-05 0.247321 0.0326862 0.163321 0.0980196 0.0979875C0.163353 0.0326539 0.247353 -1.28746e-05 0.35002 -1.28746e-05H3.99002C4.90469 -1.28746e-05 5.68402 0.14932 6.32802 0.447987C6.97202 0.737321 7.46669 1.16665 7.81202 1.73599C8.15735 2.29599 8.34402 2.99132 8.37202 3.82199C8.38135 4.23265 8.38602 4.59199 8.38602 4.89999C8.38602 5.20799 8.38135 5.56265 8.37202 5.96399C8.33469 6.83199 8.14802 7.55065 7.81202 8.11999C7.48535 8.68932 7.00469 9.11399 6.37002 9.39399C5.74469 9.66465 4.97469 9.79999 4.06002 9.79999H0.35002ZM2.50602 7.78399H3.99002C4.39135 7.78399 4.72269 7.72332 4.98402 7.60199C5.25469 7.47132 5.45535 7.27065 5.58602 6.99999C5.72602 6.72932 5.80069 6.37465 5.81002 5.93599C5.82869 5.66532 5.83802 5.42265 5.83802 5.20799C5.84735 4.99332 5.84735 4.77865 5.83802 4.56399C5.83802 4.34932 5.82869 4.11132 5.81002 3.84999C5.79135 3.21532 5.62335 2.75332 5.30602 2.46399C4.99802 2.16532 4.53602 2.01599 3.92002 2.01599H2.50602V7.78399Z" fill="black"/>
</svg>
