<svg width="16" height="16" viewBox="0 0 16 16" fill="none" xmlns="http://www.w3.org/2000/svg">
<path d="M13.265 6.26498L8.26505 11.265C8.19473 11.3352 8.09942 11.3747 8.00005 11.3747C7.90067 11.3747 7.80536 11.3352 7.73505 11.265L2.73505 6.26498C2.66881 6.1939 2.63274 6.09987 2.63446 6.00272C2.63617 5.90557 2.67553 5.81288 2.74423 5.74417C2.81294 5.67547 2.90563 5.63611 3.00278 5.6344C3.09993 5.63268 3.19396 5.66874 3.26505 5.73498L8.00005 10.4694L12.735 5.73498C12.8061 5.66874 12.9002 5.63268 12.9973 5.6344C13.0945 5.63611 13.1872 5.67547 13.2559 5.74417C13.3246 5.81288 13.3639 5.90557 13.3656 6.00272C13.3673 6.09987 13.3313 6.1939 13.265 6.26498Z" fill="#1B2438"/>
</svg>
